<svg viewBox="0 0 16 16" fill="currentColor" role="img" focusable="false" aria-hidden="true"><path d="M2.085 4.659c.33-1.322.496-1.983.868-2.473a3 3 0 0 1 1.209-.944C4.727 1 5.409 1 6.772 1h2.457c1.362 0 2.044 0 2.609.242a3 3 0 0 1 1.21.944c.37.49.536 1.15.867 2.473l.94 3.764c.055.218.083.327.102.438.016.094.027.19.035.284.008.112.008.225.008.45v.575c0 1.709 0 2.563-.338 3.213a2.999 2.999 0 0 1-1.28 1.28C12.733 15 11.88 15 10.17 15H5.83c-1.708 0-2.563 0-3.213-.338a3 3 0 0 1-1.28-1.28C1 12.733 1 11.88 1 10.17v-.575c0-.225 0-.338.008-.45a3 3 0 0 1 .035-.284 6.02 6.02 0 0 1 .098-.426l.944-3.776ZM2.6 8.787l.942-3.765c.17-.682.28-1.115.387-1.442.102-.31.173-.425.22-.487a1.5 1.5 0 0 1 .604-.472c.072-.03.201-.07.526-.095.343-.025.79-.026 1.493-.026H9.23c.703 0 1.15 0 1.493.026.325.024.454.064.526.095a1.5 1.5 0 0 1 .604.472c.047.062.118.178.22.487.108.327.217.76.387 1.442l.942 3.765c.06.239.07.285.077.328.008.047.014.095.018.142.003.044.004.092.004.338V10h-1.382a2.56 2.56 0 0 0-2.289 1.415 1.06 1.06 0 0 1-.947.585H7.118a1.06 1.06 0 0 1-.947-.585A2.559 2.559 0 0 0 3.882 10H2.5v-.405c0-.246.001-.294.004-.338.004-.047.01-.095.018-.142.007-.043.018-.09.077-.328Z" fill-rule="evenodd"></path></svg>