<?xml version="1.0" standalone="no"?>
<!DOCTYPE svg PUBLIC "-//W3C//DTD SVG 20010904//EN"
 "http://www.w3.org/TR/2001/REC-SVG-20010904/DTD/svg10.dtd">
<svg version="1.0" xmlns="http://www.w3.org/2000/svg"
 width="700.000000pt" height="700.000000pt" viewBox="0 0 700.000000 700.000000"
 preserveAspectRatio="xMidYMid meet">
<metadata>
Created by potrace 1.14, written by Peter Selinger 2001-2017
</metadata>
<g transform="translate(0.000000,700.000000) scale(0.100000,-0.100000)"
fill="#000000" stroke="none">
<path d="M3278 6996 c-1 -2 -41 -6 -88 -10 -87 -7 -105 -9 -225 -27 -143 -22
-141 -21 -325 -65 -102 -25 -374 -111 -435 -139 -16 -7 -64 -28 -105 -45 -129
-56 -323 -158 -452 -238 -836 -524 -1401 -1351 -1587 -2322 -21 -111 -31 -170
-37 -235 -2 -22 -7 -76 -11 -120 -15 -155 -8 -603 12 -704 2 -12 6 -48 9 -80
21 -219 132 -621 246 -887 217 -507 526 -924 970 -1309 167 -145 435 -319 700
-456 55 -28 191 -89 199 -89 4 0 25 -9 47 -19 75 -37 361 -127 490 -156 189
-42 188 -41 329 -61 22 -3 51 -8 65 -10 166 -25 682 -25 842 1 13 2 43 6 68 9
25 3 72 11 105 17 33 5 74 13 90 15 140 25 385 95 560 161 321 121 668 318
935 532 344 274 652 634 861 1006 25 44 50 89 57 100 117 208 253 579 319 870
8 40 23 115 28 145 4 27 13 79 20 120 2 14 7 52 11 85 4 33 9 76 11 95 8 72
10 518 2 602 -15 161 -26 245 -54 393 -31 168 -104 420 -171 593 -43 111 -166
369 -216 457 -67 116 -87 148 -147 235 -210 310 -450 568 -751 806 -88 69
-334 235 -379 255 -17 8 -31 17 -31 21 0 5 -5 8 -10 8 -6 0 -41 17 -78 38
-283 160 -742 314 -1092 368 -25 3 -54 8 -65 10 -10 2 -49 6 -85 10 -36 3 -76
8 -90 11 -27 5 -536 14 -542 9z m502 -1010 c19 -3 55 -8 80 -11 148 -20 413
-88 525 -135 11 -4 45 -18 75 -30 550 -224 1023 -668 1283 -1205 116 -238 196
-490 223 -700 3 -22 7 -46 10 -53 18 -56 26 -453 11 -609 -15 -167 -91 -497
-143 -618 -7 -16 -22 -55 -34 -85 -28 -68 -95 -205 -140 -285 -32 -58 -147
-235 -159 -245 -3 -3 -19 -23 -35 -45 -36 -48 -138 -165 -204 -231 -241 -244
-593 -470 -902 -578 -58 -21 -116 -41 -130 -46 -64 -23 -249 -64 -380 -84
-186 -29 -546 -29 -715 -1 -16 3 -46 8 -65 11 -19 3 -48 8 -65 11 -108 17
-386 101 -500 153 -383 172 -677 391 -931 693 -65 78 -170 219 -199 268 -117
200 -140 247 -225 454 -31 75 -83 253 -105 360 -40 193 -50 295 -50 525 0 213
6 287 41 483 11 62 55 228 83 315 165 504 525 978 961 1267 41 28 77 53 80 56
16 18 306 166 379 194 163 60 223 79 341 109 142 36 170 41 340 61 101 12 473
13 550 1z"/>
<path d="M3500 3500 l0 -1752 103 6 c56 3 116 8 132 11 149 27 204 39 286 65
52 16 103 34 114 39 11 6 45 20 75 33 116 48 315 170 410 252 120 105 311 319
343 386 4 8 20 35 37 60 109 169 204 442 236 680 10 74 10 372 0 440 -60 410
-221 737 -500 1015 -311 311 -705 487 -1138 511 l-98 6 0 -1752z"/>
</g>
</svg>
