<?xml version="1.0" standalone="no"?>
<!DOCTYPE svg PUBLIC "-//W3C//DTD SVG 20010904//EN"
 "http://www.w3.org/TR/2001/REC-SVG-20010904/DTD/svg10.dtd">
<svg version="1.0" xmlns="http://www.w3.org/2000/svg"
 width="700.000000pt" height="700.000000pt" viewBox="0 0 700.000000 700.000000"
 preserveAspectRatio="xMidYMid meet">
<metadata>
Created by potrace 1.14, written by Peter Selinger 2001-2017
</metadata>
<g transform="translate(0.000000,700.000000) scale(0.100000,-0.100000)"
fill="#000000" stroke="none">
<path d="M3417 6344 c-1 -1 -52 -4 -113 -8 -61 -4 -121 -9 -135 -11 -13 -2
-40 -6 -59 -9 -38 -5 -132 -19 -140 -21 -207 -44 -238 -55 -281 -102 -70 -75
-83 -179 -32 -261 56 -90 146 -123 263 -96 221 51 368 68 580 68 114 0 265 -9
315 -18 11 -2 43 -7 70 -11 28 -3 88 -16 135 -26 121 -28 171 -30 222 -7 108
48 162 178 116 280 -22 48 -61 93 -98 113 -45 23 -261 69 -420 90 -89 11 -414
26 -423 19z"/>
<path d="M5322 5550 c-86 -19 -157 -104 -165 -197 -6 -67 22 -127 93 -203 43
-45 88 -100 188 -225 21 -26 116 -170 143 -217 69 -120 151 -304 203 -458 62
-180 79 -208 160 -245 101 -48 224 -4 283 102 25 44 25 108 3 190 -117 419
-397 897 -695 1185 -65 63 -133 85 -213 68z"/>
<path d="M1531 5530 c-78 -36 -261 -248 -410 -475 -72 -110 -248 -435 -236
-435 2 0 -8 -26 -22 -57 -52 -116 -111 -315 -108 -368 4 -92 73 -181 155 -201
127 -30 234 34 274 164 123 399 301 711 573 1001 60 64 82 117 78 188 -9 150
-167 245 -304 183z"/>
<path d="M914 3008 c-23 -5 -59 -24 -82 -44 -89 -76 -98 -151 -41 -329 22 -66
46 -134 54 -152 8 -17 15 -35 15 -39 0 -4 9 -26 19 -48 10 -23 37 -81 60 -130
120 -257 330 -557 531 -754 120 -118 308 -75 363 84 29 80 4 162 -73 243 -182
191 -376 483 -464 701 -15 36 -31 74 -37 85 -5 11 -29 80 -53 154 -48 143 -70
177 -139 212 -45 24 -97 29 -153 17z"/>
<path d="M5985 3010 c-95 -22 -140 -74 -185 -217 -113 -355 -286 -655 -538
-931 -86 -94 -104 -130 -104 -202 0 -70 27 -126 79 -167 49 -39 86 -50 148
-48 68 3 108 26 183 104 285 297 507 675 643 1093 42 131 44 147 28 212 -27
107 -148 181 -254 156z"/>
<path d="M2766 1162 c-145 -47 -190 -252 -78 -357 53 -51 111 -70 317 -104
122 -20 155 -25 280 -37 85 -8 347 -8 430 0 33 3 85 9 115 12 74 7 139 18 295
50 141 29 212 79 236 169 25 91 -7 184 -81 238 -61 43 -111 49 -220 26 -52
-11 -102 -22 -110 -23 -40 -9 -100 -18 -220 -32 -189 -23 -523 -4 -715 40
-168 39 -181 39 -249 18z"/>
</g>
</svg>
