<?xml version="1.0" encoding="UTF-8"?>
<svg xmlns="http://www.w3.org/2000/svg" xmlns:xlink="http://www.w3.org/1999/xlink" width="0" height="0">
<defs>
<symbol viewBox="0 0 16 16" fill="currentColor" class="w-3.5 h-3.5 mr-4 text-gray-500 group-hover:text-gray-600" id="Views"><path fill-rule="evenodd" clip-rule="evenodd" d="M12.6541 10.7952L14.7544 11.6213C14.8576 11.6618 14.9394 11.7434 14.9801 11.8466C15.0511 12.0264 14.9828 12.2268 14.827 12.3284L14.755 12.3656L8.35645 14.8924C8.15935 14.9703 7.94372 14.9831 7.74052 14.9309L7.62035 14.8918L1.25259 12.3653C1.1499 12.3246 1.06864 12.2432 1.02806 12.1404C0.957068 11.9607 1.02536 11.7603 1.1812 11.6587L1.25319 11.6215L3.34307 10.7962L7.06917 12.2751C7.65895 12.5091 8.31525 12.5097 8.9054 12.2766L12.6541 10.7952ZM12.6541 6.77688L14.7544 7.60289C14.8576 7.64346 14.9394 7.72508 14.9801 7.82824C15.0511 8.00803 14.9828 8.20839 14.827 8.31004L14.755 8.3472L10.6001 9.98825L9.619 10.375L8.35645 10.8741L8.317 10.886L8.23566 10.9132C8.20301 10.9215 8.17004 10.9282 8.13688 10.9331C8.12585 10.9346 8.11547 10.936 8.10507 10.9372C8.02541 10.9468 7.94422 10.9464 7.86397 10.9363L7.74052 10.9126L7.62035 10.8735L6.391 10.385L5.38907 9.98825L1.25259 8.34697C1.1499 8.30623 1.06864 8.22483 1.02806 8.12208C0.957068 7.94229 1.02536 7.74192 1.1812 7.64029L1.25319 7.60312L3.34307 6.77788L7.06917 8.25677C7.65895 8.49078 8.31525 8.4913 8.9054 8.25824L12.6541 6.77688ZM7.62186 1.06989C7.85734 0.976906 8.11932 0.976697 8.35494 1.06931L14.7544 3.58452C14.8576 3.62509 14.9394 3.70671 14.9801 3.80987C15.0612 4.01534 14.9605 4.24769 14.755 4.32884L10.6001 5.96988L8.35565 6.856L8.27468 6.88396C8.25405 6.8901 8.23326 6.89557 8.21236 6.90036C8.09824 6.92674 7.98013 6.93258 7.86397 6.91788L7.74052 6.89419L7.62035 6.8551L1.25259 4.3286C1.1499 4.28786 1.06864 4.20646 1.02806 4.10371C0.946925 3.89823 1.04772 3.66589 1.25319 3.58475L7.62186 1.06989Z"></path></symbol>
<symbol viewBox="0 0 16 16" fill="currentColor" role="img" focusable="false" aria-hidden="true" id="User"><path d="M10.5 6.5a2.5 2.5 0 1 1-5 0 2.5 2.5 0 0 1 5 0ZM8 10c2.338 0 3.6.475 3.972 1.424a.43.43 0 0 1 .028.157.419.419 0 0 1-.419.419H4.419A.419.419 0 0 1 4 11.581a.43.43 0 0 1 .028-.157C4.399 10.474 5.662 10 8 10Z"></path><path fill-rule="evenodd" clip-rule="evenodd" d="M1 5.8c0-1.68 0-2.52.327-3.162a3 3 0 0 1 1.311-1.311C3.28 1 4.12 1 5.8 1h4.4c1.68 0 2.52 0 3.162.327a3 3 0 0 1 1.311 1.311C15 3.28 15 4.12 15 5.8v4.4c0 1.68 0 2.52-.327 3.162a3 3 0 0 1-1.311 1.311C12.72 15 11.88 15 10.2 15H5.8c-1.68 0-2.52 0-3.162-.327a3 3 0 0 1-1.311-1.311C1 12.72 1 11.88 1 10.2V5.8Zm4.8-3.3h4.4c.865 0 1.423.001 1.848.036.408.033.559.09.633.127a1.5 1.5 0 0 1 .655.656c.038.074.095.225.128.633.035.425.036.983.036 1.848v4.4c0 .865-.001 1.423-.036 1.848-.033.408-.09.559-.128.633a1.5 1.5 0 0 1-.655.655c-.074.038-.225.095-.633.128-.425.035-.983.036-1.848.036H5.8c-.865 0-1.423-.001-1.848-.036-.408-.033-.559-.09-.633-.128a1.5 1.5 0 0 1-.656-.655c-.037-.074-.094-.225-.127-.633-.035-.425-.036-.983-.036-1.848V5.8c0-.865.001-1.423.036-1.848.033-.408.09-.559.127-.633a1.5 1.5 0 0 1 .656-.656c.074-.037.225-.094.633-.127C4.377 2.5 4.935 2.5 5.8 2.5Z"></path></symbol>
<symbol viewBox="0 0 14 14" fill="currentColor" aria-label="Todo" class="color-override" id="Todo"><rect x="1" y="1" width="12" height="12" rx="6" stroke="lch(74.884% 0 139.088 / 1)" stroke-width="2" fill="none"></rect><path fill="lch(74.884% 0 139.088 / 1)" stroke="none" d="M 3.5,3.5 L3.5,0 A3.5,3.5 0 0,1 3.5, 0 z" transform="translate(3.5,3.5)"></path></symbol>
<symbol baseProfile="full" fill="currentColor" viewBox="0 0 16 16" fill2="#8A8F98" class="absolute w-3.5 h-3.5 text-gray-500 left-2 top-2" id="Search"><path d="M14.7827 13.7357L10.9043 9.8563C11.7508 8.74318 12.1431 7.34997 12.0017 5.95854C11.8603 4.56711 11.1958 3.28135 10.1426 2.36138C9.08944 1.44142 7.72624 0.95593 6.32879 1.00315C4.93135 1.05037 3.60401 1.62676 2.6153 2.61572C1.6266 3.60468 1.05035 4.93236 1.00315 6.33017C0.955941 7.72797 1.4413 9.09152 2.36103 10.145C3.28076 11.1984 4.56619 11.8631 5.95726 12.0045C7.34833 12.146 8.74118 11.7536 9.85402 10.9068L13.7324 14.7862C13.8729 14.9233 14.0614 15 14.2576 15C14.4538 15 14.6422 14.9233 14.7827 14.7862C14.9218 14.6469 15 14.458 15 14.261C15 14.064 14.9218 13.8751 14.7827 13.7357V13.7357ZM2.52547 6.53482C2.52547 5.74157 2.76063 4.96613 3.20122 4.30657C3.64182 3.64701 4.26805 3.13294 5.00072 2.82938C5.7334 2.52581 6.53962 2.44639 7.31743 2.60114C8.09523 2.7559 8.8097 3.13788 9.37046 3.6988C9.93123 4.25971 10.3131 4.97435 10.4678 5.75236C10.6225 6.53037 10.5431 7.33679 10.2397 8.06966C9.93617 8.80253 9.42224 9.42892 8.76285 9.86963C8.10345 10.3103 7.32822 10.5456 6.53517 10.5456C5.47212 10.5443 4.45296 10.1213 3.70127 9.36945C2.94958 8.61756 2.52672 7.59814 2.52547 6.53482V6.53482Z"></path></symbol>
<symbol viewBox="0 0 16 16" fill="#5c5c5e" id="OpenNav"><path d="M15 5.25A3.25 3.25 0 0 0 11.75 2h-7.5A3.25 3.25 0 0 0 1 5.25v5.5A3.25 3.25 0 0 0 4.25 14h7.5A3.25 3.25 0 0 0 15 10.75v-5.5Zm-3.5 7.25H7v-9h4.5a2 2 0 0 1 2 2v5a2 2 0 0 1-2 2Zm-6 0H4.25a1.75 1.75 0 0 1-1.75-1.75v-5.5c0-.966.784-1.75 1.75-1.75H5.5v9Z"></path></symbol>
<symbol baseProfile="full" fill="currentColor" viewBox="0 0 14 14" fill2="currentColor" class="mr-2.5 w-3.5 h-3.5" id="NewIssue"><path d="M13.7826 2.26359C14.1313 1.69123 14.0606 0.931152 13.5705 0.434915C13.0757 -0.0660681 12.3153 -0.134235 11.7483 0.230412C12.2123 1.09277 12.9198 1.79999 13.7826 2.26359Z"></path><path d="M10.8171 1.11829L5.78472 6.18C6.77457 6.47517 7.57699 7.21908 7.95006 8.18198L12.9064 3.20208C12.0535 2.68436 11.3369 1.9696 10.8171 1.11829Z"></path><path d="M6.91486 9.17614C6.80538 8.1186 5.91913 7.30487 4.8592 7.29183C4.53827 7.92804 4.21105 8.90848 4.01729 9.53109C3.93355 9.80017 4.16675 10.0527 4.44262 9.99047C5.16831 9.82683 6.36057 9.52165 6.91486 9.17614Z"></path><path d="M3.75 1C1.67893 1 0 2.67893 0 4.75V10.25C0 12.3211 1.67893 14 3.75 14H9.25009C11.3212 14 13.0001 12.3211 13.0001 10.25V7C13.0001 6.58579 12.6643 6.25 12.2501 6.25C11.8359 6.25 11.5001 6.58579 11.5001 7V10.25C11.5001 11.4926 10.4927 12.5 9.25009 12.5H3.75C2.50736 12.5 1.5 11.4926 1.5 10.25V4.75C1.5 3.50736 2.50736 2.5 3.75 2.5H6C6.41421 2.5 6.75 2.16421 6.75 1.75C6.75 1.33579 6.41421 1 6 1H3.75Z"></path></symbol>
<symbol viewBox="0 0 16 16" fill="currentColor" class="w-3.5 h-3.5 mr-4 text-gray-500 group-hover:text-gray-600" id="Issues"><path d="M14.2458 10C14.6255 10 14.9393 10.2822 14.9889 10.6482L14.9958 10.75V12.2475C14.9958 13.7083 13.8567 14.9034 12.4177 14.9922L12.2504 14.9975L10.7513 15C10.3371 15.0007 10.0007 14.6655 10 14.2513C9.99936 13.8716 10.281 13.5573 10.647 13.507L10.7487 13.5L12.2479 13.4975C12.8943 13.4964 13.4255 13.0047 13.4893 12.3751L13.4958 12.2475V10.75C13.4958 10.3358 13.8316 10 14.2458 10ZM1.75 10C2.16421 10 2.5 10.3358 2.5 10.75V12.2475C2.5 12.937 3.05836 13.4963 3.74789 13.4975L5.24703 13.5C5.66125 13.5007 5.99646 13.8371 5.99576 14.2513C5.99506 14.6655 5.65871 15.0007 5.2445 15L3.74535 14.9975C2.22839 14.9949 1 13.7644 1 12.2475V10.75C1 10.3358 1.33579 10 1.75 10ZM8 6C9.10457 6 10 6.89543 10 8C10 9.10457 9.10457 10 8 10C6.89543 10 6 9.10457 6 8C6 6.89543 6.89543 6 8 6ZM10.7513 1L12.2504 1.00254C13.7674 1.0051 14.9958 2.23556 14.9958 3.75253V5.25C14.9958 5.66422 14.66 6 14.2458 6C13.8316 6 13.4958 5.66422 13.4958 5.25V3.75253C13.4958 3.063 12.9374 2.5037 12.2479 2.50253L10.7487 2.5C10.3345 2.4993 9.9993 2.16295 10 1.74873C10.0007 1.33452 10.3371 0.999302 10.7513 1ZM5.24873 1C5.66295 0.999303 5.9993 1.33452 6 1.74873C6.0007 2.16295 5.66548 2.4993 5.25127 2.5L3.75212 2.50253C3.06259 2.5037 2.50424 3.063 2.50424 3.75253V5.25C2.50424 5.66422 2.16845 6 1.75424 6C1.34002 6 1.00424 5.66422 1.00424 5.25V3.75253C1.00424 2.23556 2.23262 1.0051 3.74959 1.00254L5.24873 1Z"></path></symbol>
<symbol viewBox="0 0 16 16" fill="currentColor" role="img" focusable="false" aria-hidden="true" id="Inbox"><path d="M2.085 4.659c.33-1.322.496-1.983.868-2.473a3 3 0 0 1 1.209-.944C4.727 1 5.409 1 6.772 1h2.457c1.362 0 2.044 0 2.609.242a3 3 0 0 1 1.21.944c.37.49.536 1.15.867 2.473l.94 3.764c.055.218.083.327.102.438.016.094.027.19.035.284.008.112.008.225.008.45v.575c0 1.709 0 2.563-.338 3.213a2.999 2.999 0 0 1-1.28 1.28C12.733 15 11.88 15 10.17 15H5.83c-1.708 0-2.563 0-3.213-.338a3 3 0 0 1-1.28-1.28C1 12.733 1 11.88 1 10.17v-.575c0-.225 0-.338.008-.45a3 3 0 0 1 .035-.284 6.02 6.02 0 0 1 .098-.426l.944-3.776ZM2.6 8.787l.942-3.765c.17-.682.28-1.115.387-1.442.102-.31.173-.425.22-.487a1.5 1.5 0 0 1 .604-.472c.072-.03.201-.07.526-.095.343-.025.79-.026 1.493-.026H9.23c.703 0 1.15 0 1.493.026.325.024.454.064.526.095a1.5 1.5 0 0 1 .604.472c.047.062.118.178.22.487.108.327.217.76.387 1.442l.942 3.765c.06.239.07.285.077.328.008.047.014.095.018.142.003.044.004.092.004.338V10h-1.382a2.56 2.56 0 0 0-2.289 1.415 1.06 1.06 0 0 1-.947.585H7.118a1.06 1.06 0 0 1-.947-.585A2.559 2.559 0 0 0 3.882 10H2.5v-.405c0-.246.001-.294.004-.338.004-.047.01-.095.018-.142.007-.043.018-.09.077-.328Z" fill-rule="evenodd"></path></symbol>
<symbol viewBox="0 0 14 14" fill="currentColor" aria-label="In Progress" class="color-override" id="InProgress"><rect x="1" y="1" width="12" height="12" rx="6" stroke="#f2be00" stroke-width="2" fill="none"></rect><path fill="#f2be00" stroke="none" d="M 3.5,3.5 L3.5,0 A3.5,3.5 0 0,1 3.5, 7 z" transform="translate(3.5,3.5)"></path></symbol>
<symbol fill="currentColor" viewBox="0 0 256 256" id="Filter"><path d="M230.6,49.53A15.81,15.81,0,0,0,216,40H40A16,16,0,0,0,28.19,66.76l.08.09L96,139.17V216a16,16,0,0,0,24.87,13.32l32-21.34A16,16,0,0,0,160,194.66V139.17l67.74-72.32.08-.09A15.8,15.8,0,0,0,230.6,49.53ZM40,56h0Zm106.18,74.58A8,8,0,0,0,144,136v58.66L112,216V136a8,8,0,0,0-2.16-5.47L40,56H216Z"></path></symbol>
<symbol viewBox="0 0 14 14" aria-label="Done" fill="#5e6ad2" class="color-override" id="Done"><path fill-rule="evenodd" clip-rule="evenodd" d="M7 0C3.13401 0 0 3.13401 0 7C0 10.866 3.13401 14 7 14C10.866 14 14 10.866 14 7C14 3.13401 10.866 0 7 0ZM11.101 5.10104C11.433 4.76909 11.433 4.23091 11.101 3.89896C10.7691 3.56701 10.2309 3.56701 9.89896 3.89896L5.5 8.29792L4.10104 6.89896C3.7691 6.56701 3.2309 6.56701 2.89896 6.89896C2.56701 7.2309 2.56701 7.7691 2.89896 8.10104L4.89896 10.101C5.2309 10.433 5.7691 10.433 6.10104 10.101L11.101 5.10104Z"></path></symbol>
<symbol viewBox="0 0 16 16" fill="currentColor" role="img" focusable="false" aria-hidden="true" id="CloseButton"><path d="M2.96967 2.96967C3.26256 2.67678 3.73744 2.67678 4.03033 2.96967L8 6.939L11.9697 2.96967C12.2626 2.67678 12.7374 2.67678 13.0303 2.96967C13.3232 3.26256 13.3232 3.73744 13.0303 4.03033L9.061 8L13.0303 11.9697C13.2966 12.2359 13.3208 12.6526 13.1029 12.9462L13.0303 13.0303C12.7374 13.3232 12.2626 13.3232 11.9697 13.0303L8 9.061L4.03033 13.0303C3.73744 13.3232 3.26256 13.3232 2.96967 13.0303C2.67678 12.7374 2.67678 12.2626 2.96967 11.9697L6.939 8L2.96967 4.03033C2.7034 3.76406 2.6792 3.3474 2.89705 3.05379L2.96967 2.96967Z"></path></symbol>
<symbol fill="currentColor" viewBox="0 0 256 256" id="CircleDashed"><path d="M96.26,37.05A8,8,0,0,1,102,27.29a104.11,104.11,0,0,1,52,0,8,8,0,0,1-2,15.75,8.15,8.15,0,0,1-2-.26,88.09,88.09,0,0,0-44,0A8,8,0,0,1,96.26,37.05ZM53.79,55.14a104.05,104.05,0,0,0-26,45,8,8,0,0,0,15.42,4.27,88,88,0,0,1,22-38.09A8,8,0,0,0,53.79,55.14ZM43.21,151.55a8,8,0,1,0-15.42,4.28,104.12,104.12,0,0,0,26,45,8,8,0,0,0,11.41-11.22A88.14,88.14,0,0,1,43.21,151.55ZM150,213.22a88,88,0,0,1-44,0,8,8,0,1,0-4,15.49,104.11,104.11,0,0,0,52,0,8,8,0,0,0-4-15.49ZM222.65,146a8,8,0,0,0-9.85,5.58,87.91,87.91,0,0,1-22,38.08,8,8,0,1,0,11.42,11.21,104,104,0,0,0,26-45A8,8,0,0,0,222.65,146Zm-9.86-41.54a8,8,0,0,0,15.42-4.28,104,104,0,0,0-26-45,8,8,0,1,0-11.41,11.22A88,88,0,0,1,212.79,104.45Z"></path></symbol>
<symbol viewBox="0 0 14 14" aria-label="Canceled" fill="lch(50.998% 10.678 258.939 / 1)" class="color-override" id="Cancelled"><path fill-rule="evenodd" clip-rule="evenodd" d="M7 14C10.866 14 14 10.866 14 7C14 3.13401 10.866 0 7 0C3.13401 0 0 3.13401 0 7C0 10.866 3.13401 14 7 14ZM5.03033 3.96967C4.73744 3.67678 4.26256 3.67678 3.96967 3.96967C3.67678 4.26256 3.67678 4.73744 3.96967 5.03033L5.93934 7L3.96967 8.96967C3.67678 9.26256 3.67678 9.73744 3.96967 10.0303C4.26256 10.3232 4.73744 10.3232 5.03033 10.0303L7 8.06066L8.96967 10.0303C9.26256 10.3232 9.73744 10.3232 10.0303 10.0303C10.3232 9.73744 10.3232 9.26256 10.0303 8.96967L8.06066 7L10.0303 5.03033C10.3232 4.73744 10.3232 4.26256 10.0303 3.96967C9.73744 3.67678 9.26256 3.67678 8.96967 3.96967L7 5.93934L5.03033 3.96967Z" stroke="none"></path></symbol>
<symbol baseProfile="full" fill="currentColor" viewBox="0 0 14 14" id="Backlog">
    <path d="M13.9408 7.91426L11.9576 7.65557C11.9855 7.4419 12 7.22314 12 7C12 6.77686 11.9855 6.5581 11.9576 6.34443L13.9408 6.08573C13.9799 6.38496 14 6.69013 14 7C14 7.30987 13.9799 7.61504 13.9408 7.91426ZM13.4688 4.32049C13.2328 3.7514 12.9239 3.22019 12.5538 2.73851L10.968 3.95716C11.2328 4.30185 11.4533 4.68119 11.6214 5.08659L13.4688 4.32049ZM11.2615 1.4462L10.0428 3.03204C9.69815 2.76716 9.31881 2.54673 8.91341 2.37862L9.67951 0.531163C10.2486 0.767153 10.7798 1.07605 11.2615 1.4462ZM7.91426 0.0591659L7.65557 2.04237C7.4419 2.01449 7.22314 2 7 2C6.77686 2 6.5581 2.01449 6.34443 2.04237L6.08574 0.059166C6.38496 0.0201343 6.69013 0 7 0C7.30987 0 7.61504 0.0201343 7.91426 0.0591659ZM4.32049 0.531164L5.08659 2.37862C4.68119 2.54673 4.30185 2.76716 3.95716 3.03204L2.73851 1.4462C3.22019 1.07605 3.7514 0.767153 4.32049 0.531164ZM1.4462 2.73851L3.03204 3.95716C2.76716 4.30185 2.54673 4.68119 2.37862 5.08659L0.531164 4.32049C0.767153 3.7514 1.07605 3.22019 1.4462 2.73851ZM0.0591659 6.08574C0.0201343 6.38496 0 6.69013 0 7C0 7.30987 0.0201343 7.61504 0.059166 7.91426L2.04237 7.65557C2.01449 7.4419 2 7.22314 2 7C2 6.77686 2.01449 6.5581 2.04237 6.34443L0.0591659 6.08574ZM0.531164 9.67951L2.37862 8.91341C2.54673 9.31881 2.76716 9.69815 3.03204 10.0428L1.4462 11.2615C1.07605 10.7798 0.767153 10.2486 0.531164 9.67951ZM2.73851 12.5538L3.95716 10.968C4.30185 11.2328 4.68119 11.4533 5.08659 11.6214L4.32049 13.4688C3.7514 13.2328 3.22019 12.9239 2.73851 12.5538ZM6.08574 13.9408L6.34443 11.9576C6.5581 11.9855 6.77686 12 7 12C7.22314 12 7.4419 11.9855 7.65557 11.9576L7.91427 13.9408C7.61504 13.9799 7.30987 14 7 14C6.69013 14 6.38496 13.9799 6.08574 13.9408ZM9.67951 13.4688L8.91341 11.6214C9.31881 11.4533 9.69815 11.2328 10.0428 10.968L11.2615 12.5538C10.7798 12.9239 10.2486 13.2328 9.67951 13.4688ZM12.5538 11.2615L10.968 10.0428C11.2328 9.69815 11.4533 9.31881 11.6214 8.91341L13.4688 9.67951C13.2328 10.2486 12.924 10.7798 12.5538 11.2615Z" stroke="none" fill="#bec2c8"></path>
</symbol>
</defs>
</svg>