<?xml version="1.0" encoding="UTF-8"?>
<svg xmlns="http://www.w3.org/2000/svg" xmlns:xlink="http://www.w3.org/1999/xlink" width="0" height="0">
<defs>
<symbol viewBox="0 0 16 16" fill="currentColor" role="img" focusable="false" aria-hidden="true" id="User"><path d="M10.5 6.5a2.5 2.5 0 1 1-5 0 2.5 2.5 0 0 1 5 0ZM8 10c2.338 0 3.6.475 3.972 1.424a.43.43 0 0 1 .028.157.419.419 0 0 1-.419.419H4.419A.419.419 0 0 1 4 11.581a.43.43 0 0 1 .028-.157C4.399 10.474 5.662 10 8 10Z"></path><path fill-rule="evenodd" clip-rule="evenodd" d="M1 5.8c0-1.68 0-2.52.327-3.162a3 3 0 0 1 1.311-1.311C3.28 1 4.12 1 5.8 1h4.4c1.68 0 2.52 0 3.162.327a3 3 0 0 1 1.311 1.311C15 3.28 15 4.12 15 5.8v4.4c0 1.68 0 2.52-.327 3.162a3 3 0 0 1-1.311 1.311C12.72 15 11.88 15 10.2 15H5.8c-1.68 0-2.52 0-3.162-.327a3 3 0 0 1-1.311-1.311C1 12.72 1 11.88 1 10.2V5.8Zm4.8-3.3h4.4c.865 0 1.423.001 1.848.036.408.033.559.09.633.127a1.5 1.5 0 0 1 .655.656c.038.074.095.225.128.633.035.425.036.983.036 1.848v4.4c0 .865-.001 1.423-.036 1.848-.033.408-.09.559-.128.633a1.5 1.5 0 0 1-.655.655c-.074.038-.225.095-.633.128-.425.035-.983.036-1.848.036H5.8c-.865 0-1.423-.001-1.848-.036-.408-.033-.559-.09-.633-.128a1.5 1.5 0 0 1-.656-.655c-.037-.074-.094-.225-.127-.633-.035-.425-.036-.983-.036-1.848V5.8c0-.865.001-1.423.036-1.848.033-.408.09-.559.127-.633a1.5 1.5 0 0 1 .656-.656c.074-.037.225-.094.633-.127C4.377 2.5 4.935 2.5 5.8 2.5Z"></path></symbol>
<symbol viewBox="0 0 16 16" fill="currentColor" role="img" focusable="false" aria-hidden="true" id="Inbox"><path d="M2.085 4.659c.33-1.322.496-1.983.868-2.473a3 3 0 0 1 1.209-.944C4.727 1 5.409 1 6.772 1h2.457c1.362 0 2.044 0 2.609.242a3 3 0 0 1 1.21.944c.37.49.536 1.15.867 2.473l.94 3.764c.055.218.083.327.102.438.016.094.027.19.035.284.008.112.008.225.008.45v.575c0 1.709 0 2.563-.338 3.213a2.999 2.999 0 0 1-1.28 1.28C12.733 15 11.88 15 10.17 15H5.83c-1.708 0-2.563 0-3.213-.338a3 3 0 0 1-1.28-1.28C1 12.733 1 11.88 1 10.17v-.575c0-.225 0-.338.008-.45a3 3 0 0 1 .035-.284 6.02 6.02 0 0 1 .098-.426l.944-3.776ZM2.6 8.787l.942-3.765c.17-.682.28-1.115.387-1.442.102-.31.173-.425.22-.487a1.5 1.5 0 0 1 .604-.472c.072-.03.201-.07.526-.095.343-.025.79-.026 1.493-.026H9.23c.703 0 1.15 0 1.493.026.325.024.454.064.526.095a1.5 1.5 0 0 1 .604.472c.047.062.118.178.22.487.108.327.217.76.387 1.442l.942 3.765c.06.239.07.285.077.328.008.047.014.095.018.142.003.044.004.092.004.338V10h-1.382a2.56 2.56 0 0 0-2.289 1.415 1.06 1.06 0 0 1-.947.585H7.118a1.06 1.06 0 0 1-.947-.585A2.559 2.559 0 0 0 3.882 10H2.5v-.405c0-.246.001-.294.004-.338.004-.047.01-.095.018-.142.007-.043.018-.09.077-.328Z" fill-rule="evenodd"></path></symbol>
<symbol fill="currentColor" viewBox="0 0 256 256" id="Filter"><path d="M230.6,49.53A15.81,15.81,0,0,0,216,40H40A16,16,0,0,0,28.19,66.76l.08.09L96,139.17V216a16,16,0,0,0,24.87,13.32l32-21.34A16,16,0,0,0,160,194.66V139.17l67.74-72.32.08-.09A15.8,15.8,0,0,0,230.6,49.53ZM40,56h0Zm106.18,74.58A8,8,0,0,0,144,136v58.66L112,216V136a8,8,0,0,0-2.16-5.47L40,56H216Z"></path></symbol>
<symbol viewBox="0 0 16 16" fill="currentColor" role="img" focusable="false" aria-hidden="true" id="CloseButton"><path d="M2.96967 2.96967C3.26256 2.67678 3.73744 2.67678 4.03033 2.96967L8 6.939L11.9697 2.96967C12.2626 2.67678 12.7374 2.67678 13.0303 2.96967C13.3232 3.26256 13.3232 3.73744 13.0303 4.03033L9.061 8L13.0303 11.9697C13.2966 12.2359 13.3208 12.6526 13.1029 12.9462L13.0303 13.0303C12.7374 13.3232 12.2626 13.3232 11.9697 13.0303L8 9.061L4.03033 13.0303C3.73744 13.3232 3.26256 13.3232 2.96967 13.0303C2.67678 12.7374 2.67678 12.2626 2.96967 11.9697L6.939 8L2.96967 4.03033C2.7034 3.76406 2.6792 3.3474 2.89705 3.05379L2.96967 2.96967Z"></path></symbol>
<symbol fill="currentColor" viewBox="0 0 256 256" id="CircleDashed"><path d="M96.26,37.05A8,8,0,0,1,102,27.29a104.11,104.11,0,0,1,52,0,8,8,0,0,1-2,15.75,8.15,8.15,0,0,1-2-.26,88.09,88.09,0,0,0-44,0A8,8,0,0,1,96.26,37.05ZM53.79,55.14a104.05,104.05,0,0,0-26,45,8,8,0,0,0,15.42,4.27,88,88,0,0,1,22-38.09A8,8,0,0,0,53.79,55.14ZM43.21,151.55a8,8,0,1,0-15.42,4.28,104.12,104.12,0,0,0,26,45,8,8,0,0,0,11.41-11.22A88.14,88.14,0,0,1,43.21,151.55ZM150,213.22a88,88,0,0,1-44,0,8,8,0,1,0-4,15.49,104.11,104.11,0,0,0,52,0,8,8,0,0,0-4-15.49ZM222.65,146a8,8,0,0,0-9.85,5.58,87.91,87.91,0,0,1-22,38.08,8,8,0,1,0,11.42,11.21,104,104,0,0,0,26-45A8,8,0,0,0,222.65,146Zm-9.86-41.54a8,8,0,0,0,15.42-4.28,104,104,0,0,0-26-45,8,8,0,1,0-11.41,11.22A88,88,0,0,1,212.79,104.45Z"></path></symbol>
</defs>
</svg>